<?xml version="1.0" encoding="UTF-8" standalone="no"?>
<!-- Created with Inkscape (http://www.inkscape.org/) -->

<svg
   width="64"
   height="64"
   id="svg4609"
   version="1.1"
   inkscape:version="1.3.2 (091e20ef0f, 2023-11-25)"
   sodipodi:docname="icon_colored.svg"
   viewBox="0 0 60.000002 59.999997"
   xmlns:inkscape="http://www.inkscape.org/namespaces/inkscape"
   xmlns:sodipodi="http://sodipodi.sourceforge.net/DTD/sodipodi-0.dtd"
   xmlns="http://www.w3.org/2000/svg"
   xmlns:svg="http://www.w3.org/2000/svg"
   xmlns:rdf="http://www.w3.org/1999/02/22-rdf-syntax-ns#"
   xmlns:cc="http://creativecommons.org/ns#"
   xmlns:dc="http://purl.org/dc/elements/1.1/">
  <defs
     id="defs4611">
    <inkscape:path-effect
       effect="fill_between_many"
       method="originald"
       linkedpaths="#path53,0,1"
       id="path-effect55" />
    <inkscape:path-effect
       effect="fill_between_many"
       method="originald"
       linkedpaths="#path45,0,1|"
       id="path-effect45" />
    <inkscape:path-effect
       effect="fill_between_many"
       method="originald"
       linkedpaths="#path47,0,1|"
       id="path-effect47" />
  </defs>
  <sodipodi:namedview
     id="base"
     pagecolor="#ffffff"
     bordercolor="#666666"
     borderopacity="1.0"
     inkscape:pageopacity="0.0"
     inkscape:pageshadow="2"
     inkscape:zoom="4.1669162"
     inkscape:cx="44.877312"
     inkscape:cy="26.518412"
     inkscape:document-units="px"
     inkscape:current-layer="layer1"
     showgrid="false"
     fit-margin-top="0"
     fit-margin-left="0"
     fit-margin-right="0"
     fit-margin-bottom="0"
     inkscape:window-width="1600"
     inkscape:window-height="832"
     inkscape:window-x="0"
     inkscape:window-y="0"
     inkscape:window-maximized="1"
     inkscape:showpageshadow="2"
     inkscape:pagecheckerboard="0"
     inkscape:deskcolor="#d1d1d1" />
  <metadata
     id="metadata4614">
    <rdf:RDF>
      <cc:Work
         rdf:about="">
        <dc:format>image/svg+xml</dc:format>
        <dc:type
           rdf:resource="http://purl.org/dc/dcmitype/StillImage" />
        <dc:title />
      </cc:Work>
    </rdf:RDF>
  </metadata>
  <g
     inkscape:label="Layer 1"
     inkscape:groupmode="layer"
     id="layer1"
     transform="translate(-231.08777,-468.61778)">
    <path
       inkscape:original-d="M 0,0"
       inkscape:path-effect="#path-effect45"
       d="m 242.18649,522.2123 c -0.0691,-0.0425 -1.91748,-7.59225 -4.10747,-16.77722 -3.59742,-15.08773 -3.9607,-16.71437 -3.7631,-16.84969 0.12029,-0.0824 0.4795,-0.21196 0.79824,-0.28796 0.84108,-0.20054 2.52468,-0.98153 6.43243,-2.98389 4.637,-2.37603 6.00373,-2.9447 7.84262,-3.26317 2.60673,-0.45146 4.73426,-0.24237 6.44116,0.63303 l 0.74317,0.38115 0.48781,-0.77332 c 1.16423,-1.84561 3.55749,-3.0638 7.62801,-3.88273 2.87028,-0.57746 4.15042,-0.6223 7.51496,-0.26325 2.7173,0.28999 4.3503,0.27043 5.78961,-0.0693 0.56884,-0.13434 1.13321,-0.21008 1.25411,-0.16845 0.17454,0.0601 1.03372,3.52459 4.17061,16.8171 l 3.95078,16.74141 -0.90134,0.26738 c -1.01464,0.30097 -5.39174,1.05673 -7.18372,1.24034 -0.64768,0.0664 -2.10685,0.16976 -3.24261,0.22979 -2.71005,0.14321 -4.94683,0.52736 -6.04448,1.03812 -0.46843,0.21796 -1.32062,0.79018 -1.89376,1.27158 l -1.04207,0.87531 -2.40464,0.57335 c -2.35484,0.56147 -2.41374,0.56731 -2.84369,0.28409 -0.61142,-0.40281 -1.69713,-0.47261 -3.5199,-0.22634 -1.99753,0.26989 -3.5794,0.76302 -7.93517,2.47368 -5.00638,1.96616 -7.85463,2.9139 -8.17156,2.71901 z"
       id="path46"
       style="fill:#e5ff80" />
    <g
       id="g45"
       transform="matrix(0.62024095,0,0,0.6202413,89.227,162.48787)"
       style="stroke-width:1.61228">
      <text
         xml:space="preserve"
         style="font-size:18.75px;line-height:1.25;font-family:sans-serif;fill:#f9f9f9;stroke-width:1.51151"
         x="241.97771"
         y="518.95618"
         id="text2"><tspan
           sodipodi:role="line"
           id="tspan2"
           style="fill:#f9f9f9;stroke-width:1.51151"
           x="241.97771"
           y="518.95618">6</tspan></text>
    </g>
    <path
       style="fill:#000000;stroke-width:1"
       d="m 222.46276,512.93401 c -0.0691,-0.0425 -1.91748,-7.59225 -4.10747,-16.77722 -3.59742,-15.08773 -3.9607,-16.71437 -3.7631,-16.84969 0.12029,-0.0824 0.4795,-0.21196 0.79824,-0.28796 0.84108,-0.20054 2.52468,-0.98153 6.43243,-2.98389 4.637,-2.37603 6.00373,-2.9447 7.84262,-3.26317 2.60673,-0.45146 4.73426,-0.24237 6.44116,0.63303 l 0.74317,0.38115 0.48781,-0.77332 c 1.16423,-1.84561 3.55749,-3.0638 7.62801,-3.88273 2.87028,-0.57746 4.15042,-0.6223 7.51496,-0.26325 2.7173,0.28999 4.3503,0.27043 5.78961,-0.0693 0.56884,-0.13434 1.13321,-0.21008 1.25411,-0.16845 0.17454,0.0601 1.03372,3.52459 4.17061,16.8171 l 3.95078,16.74141 -0.90134,0.26738 c -1.01464,0.30097 -5.39174,1.05673 -7.18372,1.24034 -0.64768,0.0664 -2.10685,0.16976 -3.24261,0.22979 -2.71005,0.14321 -4.94683,0.52736 -6.04448,1.03812 -0.46843,0.21796 -1.32062,0.79018 -1.89376,1.27158 l -1.04207,0.87531 -2.40464,0.57335 c -2.35484,0.56147 -2.41374,0.56731 -2.84369,0.28409 -0.61142,-0.40281 -1.69713,-0.47261 -3.5199,-0.22634 -1.99753,0.26989 -3.5794,0.76302 -7.93517,2.47368 -5.00638,1.96616 -7.85463,2.9139 -8.17156,2.71901 z m 7.40428,-3.0645 c 3.18999,-1.28862 3.88246,-1.5156 6.67739,-2.18881 3.42497,-0.82499 4.45217,-0.89137 5.51699,-0.35657 0.5253,0.26383 0.60903,0.25551 2.87798,-0.28606 2.11772,-0.50493 2.37965,-0.60022 2.79216,-1.00967 0.25038,-0.24853 0.84628,-0.71606 1.32422,-1.03896 1.23206,-0.83236 3.82789,-1.44548 6.76254,-1.59729 3.27514,-0.16936 5.57849,-0.44827 8.49784,-1.02897 l 2.68124,-0.53335 -3.88859,-16.30892 c -3.43232,-14.39534 -3.91537,-16.30253 -4.11688,-16.25448 -0.20118,0.048 0.14769,1.63168 2.9372,13.3337 1.74109,7.30358 3.30618,14.06808 3.47814,15.03217 l 0.31265,1.75287 -0.95149,0.11833 c -0.52332,0.0651 -2.61632,0.15941 -4.65111,0.20965 -5.42601,0.13398 -6.55383,0.23512 -9.03375,0.81014 -1.74162,0.40384 -2.3886,0.61763 -3.05209,1.00854 -1.77403,1.04522 -2.57205,2.09528 -2.90789,3.82632 -0.11583,0.59699 -0.2774,1.0376 -0.35905,0.97915 -0.0817,-0.0584 -0.35227,-0.41261 -0.60138,-0.78702 -0.92106,-1.3844 -2.48632,-2.05682 -4.49871,-1.93261 -1.42728,0.0881 -4.11881,0.89332 -6.66919,1.99519 -6.07362,2.62406 -7.20863,3.08916 -8.58508,3.51806 l -1.51051,0.47067 -0.60108,-2.07477 c -0.33059,-1.14113 -1.98653,-7.88545 -3.67986,-14.98739 -2.71252,-11.37641 -3.10596,-12.90613 -3.30709,-12.85818 -0.20151,0.048 0.22792,1.96783 3.65991,16.36176 l 3.8882,16.30732 1.7241,-0.52159 c 0.94825,-0.28687 3.32568,-1.16856 5.28317,-1.95929 z m 16.05774,-7.18712 c 0.28555,-0.3494 0.94665,-0.90723 1.46913,-1.23959 0.86298,-0.54896 1.20093,-0.66358 3.69089,-1.25164 3.0038,-0.70945 3.51395,-0.7587 9.08316,-0.87739 1.82823,-0.039 3.74377,-0.12568 4.25675,-0.19271 l 0.93268,-0.12186 -3.52294,-14.77538 -3.52294,-14.77538 -0.74572,0.0768 c -1.63513,0.16833 -2.61477,0.15592 -5.44509,-0.069 -1.62315,-0.12898 -3.34703,-0.22502 -3.83083,-0.21344 -1.37071,0.0328 -5.4787,0.91213 -6.891,1.475 -2.18826,0.87212 -3.13567,1.69423 -3.73211,3.23849 l -0.29525,0.76447 1.13963,4.77969 c 0.6268,2.62883 2.28778,9.39382 3.69107,15.03332 l 2.55143,10.25363 0.32599,-0.73484 c 0.17929,-0.40418 0.55961,-1.02073 0.84515,-1.37016 z m -9.37391,-28.31017 c -0.71296,-0.58262 -2.2799,-1.12955 -3.46651,-1.20997 -0.54415,-0.0369 -1.68396,0.0148 -2.53291,0.1148 -1.98813,0.23422 -2.92231,0.60297 -7.99339,3.15522 -2.14315,1.07864 -4.50079,2.19509 -5.23921,2.481 l -1.34256,0.51984 3.53563,14.82861 3.53563,14.82861 1.53721,-0.46759 c 0.84547,-0.25717 2.2915,-0.79516 3.2134,-1.19554 6.53064,-2.83624 7.70666,-3.29928 9.55586,-3.76255 1.14611,-0.2871 2.27184,-0.47773 2.83864,-0.48064 1.20754,-0.006 2.5573,0.42368 3.32781,1.05984 l 0.60786,0.50187 -3.52952,-14.97493 -3.52952,-14.97492 z"
       id="path45"
       inkscape:connector-curvature="0"
       inkscape:export-xdpi="200"
       inkscape:export-ydpi="200"
       transform="translate(19.723728,9.278292)" />
    <path
       style="fill:#000000;stroke-width:1"
       d="m 242.18649,522.21232 c -0.0691,-0.0425 -1.91748,-7.59225 -4.10747,-16.77722 -3.59742,-15.08773 -3.9607,-16.71437 -3.7631,-16.84969 0.12029,-0.0824 0.4795,-0.21196 0.79824,-0.28796 0.84108,-0.20054 2.52468,-0.98153 6.43243,-2.98389 4.637,-2.37603 6.00373,-2.9447 7.84262,-3.26317 2.60673,-0.45146 4.73426,-0.24237 6.44116,0.63303 l 0.74317,0.38115 0.48781,-0.77332 c 1.16423,-1.84561 3.55749,-3.0638 7.62801,-3.88273 2.87028,-0.57746 4.15042,-0.6223 7.51496,-0.26325 2.7173,0.28999 4.3503,0.27043 5.78961,-0.0693 0.56884,-0.13434 1.13321,-0.21008 1.25411,-0.16845 0.17454,0.0601 1.03372,3.52459 4.17061,16.8171 l 3.95078,16.74141 -0.90134,0.26738 c -1.01464,0.30097 -5.39174,1.05673 -7.18372,1.24034 -0.64768,0.0664 -2.10685,0.16976 -3.24261,0.22979 -2.71005,0.14321 -4.94683,0.52736 -6.04448,1.03812 -0.46843,0.21796 -1.32062,0.79018 -1.89376,1.27158 l -1.04207,0.87531 -2.40464,0.57335 c -2.35484,0.56147 -2.41374,0.56731 -2.84369,0.28409 -0.61142,-0.40281 -1.69713,-0.47261 -3.5199,-0.22634 -1.99753,0.26989 -3.5794,0.76302 -7.93517,2.47368 -5.00638,1.96616 -7.85463,2.9139 -8.17156,2.71901 z m 7.40428,-3.0645 c 3.18999,-1.28862 3.88246,-1.5156 6.67739,-2.18881 3.42497,-0.82499 4.45217,-0.89137 5.51699,-0.35657 0.5253,0.26383 0.60903,0.25551 2.87798,-0.28606 2.11772,-0.50493 2.37965,-0.60022 2.79216,-1.00967 0.25038,-0.24853 0.84628,-0.71606 1.32422,-1.03896 1.23206,-0.83236 3.82789,-1.44548 6.76254,-1.59729 3.27514,-0.16936 5.57849,-0.44827 8.49784,-1.02897 l 2.68124,-0.53335 -3.88859,-16.30892 c -3.43232,-14.39534 -3.91537,-16.30253 -4.11688,-16.25448 -0.20118,0.048 0.14769,1.63168 2.9372,13.3337 1.74109,7.30358 3.30618,14.06808 3.47814,15.03217 l 0.31265,1.75287 -0.95149,0.11833 c -0.52332,0.0651 -2.61632,0.15941 -4.65111,0.20965 -5.42601,0.13398 -6.55383,0.23512 -9.03375,0.81014 -1.74162,0.40384 -2.3886,0.61763 -3.05209,1.00854 -1.77403,1.04522 -2.57205,2.09528 -2.90789,3.82632 -0.11583,0.59699 -0.2774,1.0376 -0.35905,0.97915 -0.0817,-0.0584 -0.35227,-0.41261 -0.60138,-0.78702 -0.92106,-1.3844 -2.48632,-2.05682 -4.49871,-1.93261 -1.42728,0.0881 -4.11881,0.89332 -6.66919,1.99519 -6.07362,2.62406 -7.20863,3.08916 -8.58508,3.51806 l -1.51051,0.47067 -0.60108,-2.07477 c -0.33059,-1.14113 -1.98653,-7.88545 -3.67986,-14.98739 -2.71252,-11.37641 -3.10596,-12.90613 -3.30709,-12.85818 -0.20151,0.048 0.22792,1.96783 3.65991,16.36176 l 3.8882,16.30732 1.7241,-0.52159 c 0.94825,-0.28687 3.32568,-1.16856 5.28317,-1.95929 z m 16.05774,-7.18712 c 0.28555,-0.3494 0.94665,-0.90723 1.46913,-1.23959 0.86298,-0.54896 1.20093,-0.66358 3.69089,-1.25164 3.0038,-0.70945 3.51395,-0.7587 9.08316,-0.87739 1.82823,-0.039 3.74377,-0.12568 4.25675,-0.19271 l 0.93268,-0.12186 -3.52294,-14.77538 -3.52294,-14.77538 -0.74572,0.0768 c -1.63513,0.16833 -2.61477,0.15592 -5.44509,-0.069 -1.62315,-0.12898 -3.34703,-0.22502 -3.83083,-0.21344 -1.37071,0.0328 -5.4787,0.91213 -6.891,1.475 -2.18826,0.87212 -3.13567,1.69423 -3.73211,3.23849 l -0.29525,0.76447 1.13963,4.77969 c 0.6268,2.62883 2.28778,9.39382 3.69107,15.03332 l 2.55143,10.25363 0.32599,-0.73484 c 0.17929,-0.40418 0.55961,-1.02073 0.84515,-1.37016 z m -9.37391,-28.31017 c -0.71296,-0.58262 -2.2799,-1.12955 -3.46651,-1.20997 -0.54415,-0.0369 -1.68396,0.0148 -2.53291,0.1148 -1.98813,0.23422 -2.92231,0.60297 -7.99339,3.15522 -2.14315,1.07864 -4.50079,2.19509 -5.23921,2.481 l -1.34256,0.51984 3.53563,14.82861 3.53563,14.82861 1.53721,-0.46759 c 0.84547,-0.25717 2.2915,-0.79516 3.2134,-1.19554 6.53064,-2.83624 7.70666,-3.29928 9.55586,-3.76255 1.14611,-0.2871 2.27184,-0.47773 2.83864,-0.48064 1.20754,-0.006 2.5573,0.42368 3.32781,1.05984 l 0.60786,0.50187 -3.52952,-14.97493 -3.52952,-14.97492 z"
       id="path3413"
       inkscape:connector-curvature="0"
       inkscape:export-xdpi="200"
       inkscape:export-ydpi="200" />
    <path
       inkscape:original-d="M 0,0"
       inkscape:path-effect="#path-effect47"
       d="m 413.12614,323.82067 c -6.99427,-0.6798 -13.17228,4.4037 -13.85206,11.398 l -12.40066,127.59177 c -0.67978,6.9943 4.40374,13.1723 11.39801,13.8521 l 22.56726,2.1933 c 6.99428,0.6798 13.17229,-4.4037 13.85207,-11.398 l 12.40066,-127.59177 c 0.67977,-6.9943 -4.40374,-13.1723 -11.39802,-13.8521 z"
       id="path48"
       style="fill:#f9f9f9;stroke-width:6.39131"
       transform="matrix(0.15219615,-0.0362886,0.0362886,0.15219615,187.75575,450.27023)" />
    <path
       style="color:#000000;display:inline;overflow:visible;visibility:visible;fill:#003380;fill-opacity:1;fill-rule:nonzero;stroke:#000000;stroke-width:1.79755;stroke-dasharray:none;stroke-opacity:1;marker:none;enable-background:accumulate"
       d="m 413.12614,323.82067 c -6.99427,-0.6798 -13.17228,4.4037 -13.85206,11.398 l -12.40066,127.59177 c -0.67978,6.9943 4.40374,13.1723 11.39801,13.8521 l 22.56726,2.1933 c 6.99428,0.6798 13.17229,-4.4037 13.85207,-11.398 l 12.40066,-127.59177 c 0.67977,-6.9943 -4.40374,-13.1723 -11.39802,-13.8521 z m 10.78132,6.265 c 2.11669,0.2058 3.66074,2.0823 3.45502,4.199 -0.20571,2.1166 -2.08221,3.6607 -4.1989,3.455 -2.1167,-0.2057 -3.66075,-2.0822 -3.45503,-4.1989 0.10052,-1.03427 0.59994,-1.93182 1.33137,-2.55534 0.76549,-0.65255 1.78511,-1.00495 2.86754,-0.89976 z m -6.99534,31.8181 7.73283,0.7516 -1.67565,17.241 16.25474,1.5799 -0.80908,8.3246 -16.25473,-1.5798 -4.58986,47.22547 -7.73284,-0.7515 4.58986,-47.22557 -16.25475,-1.5798 0.80907,-8.3246 16.25475,1.5798 z"
       id="path47"
       inkscape:connector-curvature="0"
       inkscape:export-filename="/home/sarah/path3413.png"
       inkscape:export-xdpi="200"
       inkscape:export-ydpi="200"
       transform="matrix(0.15219615,-0.0362886,0.0362886,0.15219615,187.75575,450.27023)"
       sodipodi:nodetypes="ccsccsccccsssscccccccccccccc" />
    <path
       style="fill:#e5ff80;fill-opacity:1;stroke:#000000;stroke-width:0.281249;stroke-linecap:round;stroke-linejoin:round;stroke-dasharray:none;stroke-opacity:1;paint-order:markers fill stroke"
       id="path49"
       sodipodi:type="arc"
       sodipodi:cx="264.31882"
       sodipodi:cy="485.72656"
       sodipodi:rx="0.88099295"
       sodipodi:ry="0.88099295"
       sodipodi:start="0"
       sodipodi:end="6.2693444"
       sodipodi:open="true"
       sodipodi:arc-type="arc"
       d="m 265.19981,485.72656 a 0.88099295,0.88099295 0 0 1 -0.87794,0.88099 0.88099295,0.88099295 0 0 1 -0.88402,-0.87489 0.88099295,0.88099295 0 0 1 0.87182,-0.88704 0.88099295,0.88099295 0 0 1 0.89006,0.86875" />
    <path
       d="m 261.90625,477.56431 c -0.23618,0.003 -0.48561,0.0297 -0.75073,0.0806 -0.35349,0.0679 -0.7339,0.18059 -1.13709,0.33691 -2.1785,0.84459 -2.45534,3.41535 -2.47741,3.66578 0.3431,-0.39636 0.76358,-0.75567 1.25244,-1.08948 0.20091,-0.54725 0.88813,-1.34197 1.58569,-1.65161 0.76851,-0.34114 1.82568,-0.54735 2.52136,-0.0751 0.69383,0.47099 0.72279,1.41993 0.85857,2.36471 0.17289,2.10034 0.3885,3.17021 0.0276,4.00187 -0.0184,0.0425 -0.0373,0.0493 -0.0623,0.0824 -0.032,0.0422 -0.0641,0.1062 -0.0641,0.1062 0,0 0.49272,1.11256 1.19934,0.0476 0.28005,-0.78554 0.029,-2.06034 -0.13916,-4.32496 -0.0526,-0.70871 -0.16186,-1.39642 -0.41382,-1.98303 0,0 -0.18786,-0.38708 -0.31128,-0.56213 -0.1069,-0.15162 -0.22812,-0.29111 -0.36804,-0.41748 -0.43466,-0.39257 -1.01266,-0.59259 -1.72119,-0.58228 z"
       style="font-family:Sans;-inkscape-font-specification:Sans;baseline-shift:baseline;display:inline;overflow:visible;fill:#786721;stroke-width:0.28125;marker:none;enable-background:accumulate;stroke:#000000;stroke-opacity:1;stroke-dasharray:none"
       id="path56"
       sodipodi:nodetypes="cccccaasccccccsscc" />
  </g>
</svg>
